<svg width="79" height="79" viewBox="0 0 79 79" fill="none" xmlns="http://www.w3.org/2000/svg">
<path opacity="0.49" d="M78.9984 39.1579C78.8171 17.7107 61.2903 0.183779 39.8432 0.00144243C17.7525 -0.185185 -0.190463 17.7621 0.00152649 39.8517C0.188154 61.2967 17.7172 78.8193 39.1632 78.9984C61.2484 79.1829 79.1861 61.2431 78.9984 39.1578V39.1579ZM44.349 62.3887H31.8654C31.1875 58.3569 30.3917 53.0444 29.4822 46.4492C29.1711 49.3505 28.7399 52.2776 28.1897 55.2271L26.9284 62.3887H14.4158L9.54203 29.3932H19.4536C19.5287 30.2545 20.3675 36.5526 21.9667 48.2897C22.0932 47.0831 22.9545 40.7828 24.5505 29.3932H34.0717L36.4002 48.2897C36.7692 42.7724 37.6476 36.4732 39.0366 29.3932H48.9396L44.349 62.3887ZM68.5955 45.9258C68.0196 47.347 67.0253 48.4292 65.6106 49.1693C64.1991 49.9093 62.3843 50.2794 60.1726 50.2794C57.6618 50.2794 55.6872 49.8493 54.2531 48.9891C52.8223 48.1299 51.8774 47.0745 51.4269 45.8293C50.9754 44.5829 50.7491 42.4174 50.7491 39.3381V36.7778L57.0064 36.9752C57.0054 36.9913 57.0054 37.0074 57.0054 37.0235L57.3137 36.0956L57.6159 35.3557C56.2966 35.3246 54.8581 35.2527 54.8581 35.2527L54.8795 30.484L57.3628 30.4469C57.1491 29.3914 56.9803 28.3279 56.7435 27.2759H50.7491V24.5151C50.7491 21.4208 51.443 19.3303 52.8298 18.2428C54.2167 17.1573 56.423 16.6135 59.4465 16.6135C63.2284 16.6135 65.794 17.3654 67.1422 18.8724C68.4915 20.3793 69.1651 22.4698 69.1651 25.149C69.1651 26.9606 68.5784 29.3546 68.0947 30.1601C67.6098 30.9677 66.7604 31.7035 65.543 32.3696C66.7464 32.7836 67.6452 33.4615 68.2319 34.4C68.8218 35.3406 69.459 36.4636 69.459 39.9333C69.459 42.5086 69.1715 44.5057 68.5955 45.9258Z" fill="white"/>
<path d="M60.9495 31.9691C61.5308 31.7514 62.0264 31.3588 62.3846 30.859C62.3857 30.858 62.3868 30.858 62.3868 30.8569C62.391 30.8515 62.3943 30.8462 62.3986 30.8408C62.4007 30.8386 62.4028 30.8354 62.405 30.8333C62.7943 30.282 63.0206 29.6041 63.0206 28.8887V22.3064C63.0206 21.4386 62.6978 20.6203 62.1122 20.0014C61.5255 19.3793 60.7479 19.0382 59.9198 19.0382C58.3228 19.0382 57.0057 20.3189 56.8405 21.9578C56.8394 21.9653 56.8394 21.9739 56.8384 21.9814C56.8351 22.0114 56.833 22.0414 56.8319 22.0725C56.8255 22.1498 56.8223 22.2281 56.8223 22.3064V28.8887C56.8223 29.5022 56.9885 30.0868 57.2792 30.5877C57.2899 30.6059 57.3006 30.6241 57.3114 30.6424C57.6878 31.2612 58.2595 31.7482 58.947 31.9895V34.0864C58.2198 34.3427 57.6245 34.8694 57.2502 35.5408C56.9864 36.0106 56.8341 36.5501 56.8233 37.1175C56.8223 37.1336 56.8223 37.1497 56.8223 37.1657V43.7685C56.8223 45.5704 58.2112 47.0388 59.9198 47.0388C60.7125 47.0388 61.4365 46.7234 61.9856 46.2032C61.992 46.1979 61.9985 46.1914 62.0049 46.185C62.6292 45.5865 63.0206 44.7241 63.0206 43.7685V37.1872C63.0206 36.3184 62.6978 35.5011 62.1122 34.8812C61.7786 34.5261 61.3678 34.2559 60.9184 34.0939V31.9809C60.9291 31.9766 60.9388 31.9734 60.9495 31.9691ZM58.6113 22.1927C58.7872 21.5931 59.3128 21.1566 59.9338 21.1566C60.2985 21.1566 60.6438 21.311 60.9045 21.5867C61.1694 21.8666 61.3153 22.2388 61.3153 22.6324V28.5637C61.3153 28.819 61.2509 29.0678 61.1351 29.2856C61.0814 29.3757 61.0192 29.4593 60.9495 29.5355V27.6349C60.9495 27.1136 60.5237 26.6878 60.0035 26.6878H59.9123C59.4897 26.6878 59.1294 26.9688 59.0092 27.3539C59.0092 27.356 59.0082 27.3582 59.0082 27.3592C58.9685 27.4633 58.947 27.5759 58.947 27.6939V29.513C58.7068 29.2427 58.5663 28.8812 58.5663 28.5058V22.567C58.5663 22.4394 58.5813 22.316 58.6102 22.198C58.6102 22.1959 58.6113 22.1948 58.6113 22.1927ZM61.3153 37.5133V43.4424C61.3153 43.7985 61.1973 44.1257 60.9988 44.3799C60.9946 44.3863 60.9903 44.3916 60.9838 44.3981C60.7296 44.693 60.3639 44.8775 59.9585 44.8775C59.1894 44.8775 58.5663 44.2168 58.5663 43.4017V37.465C58.5663 37.2987 58.5941 37.1357 58.6446 36.9823C58.6478 36.9727 58.651 36.9641 58.6542 36.9555C58.7229 36.7807 58.8226 36.6198 58.947 36.4825V38.071C58.947 38.5912 59.3696 39.0138 59.8877 39.0138H59.9778C60.3178 39.0138 60.617 38.8314 60.7822 38.559C60.7833 38.5569 60.7854 38.5536 60.7876 38.5504C60.8895 38.3992 60.9495 38.2169 60.9495 38.0217V36.5158C61.1855 36.7893 61.3153 37.1411 61.3153 37.5133Z" fill="white"/>
</svg>
