<svg width="360" height="1532" viewBox="0 0 360 1532" fill="none" xmlns="http://www.w3.org/2000/svg">
<g clip-path="url(#clip0_202_3812)">
<rect width="360" height="1532" fill="white"/>
<ellipse cx="188.296" cy="910.1" rx="770.632" ry="306.422" transform="rotate(99.6524 188.296 910.1)" fill="url(#paint0_radial_202_3812)"/>
<path d="M-78.7624 445.736C-84.4786 435.835 -84.4787 423.637 -78.7624 413.736L-40.8697 348.104C-35.1534 338.203 -24.5894 332.104 -13.1569 332.104L62.6286 332.104C74.0611 332.104 84.6251 338.203 90.3414 348.104L128.234 413.736C133.95 423.637 133.95 435.835 128.234 445.736L90.3414 511.368C84.6251 521.269 74.0611 527.368 62.6286 527.368L-13.1569 527.368C-24.5894 527.368 -35.1534 521.269 -40.8697 511.368L-78.7624 445.736Z" fill="url(#paint1_linear_202_3812)"/>
<path d="M-70.7836 444.305C-76.1426 435.023 -76.1426 423.587 -70.7836 414.305L-36.6493 355.183C-31.2903 345.901 -21.3865 340.183 -10.6685 340.183L57.6002 340.183C68.3182 340.183 78.222 345.901 83.581 355.183L117.715 414.305C123.074 423.587 123.074 435.023 117.715 444.305L83.581 503.428C78.222 512.71 68.3182 518.428 57.6002 518.428L-10.6685 518.428C-21.3864 518.428 -31.2903 512.71 -36.6492 503.428L-70.7836 444.305Z" fill="url(#paint2_linear_202_3812)"/>
<path d="M237.437 209.248C237.437 215.322 234.197 220.934 228.937 223.971L193 244.719C187.74 247.756 181.26 247.756 176 244.719L140.063 223.971C134.803 220.934 131.563 215.322 131.563 209.248L131.563 167.752C131.563 161.678 134.803 156.066 140.063 153.029L176 132.281C181.26 129.244 187.74 129.244 193 132.281L228.937 153.029C234.197 156.066 237.437 161.678 237.437 167.752L237.437 209.248Z" fill="url(#paint3_linear_202_3812)"/>
<path d="M233.302 207.708C233.302 213.424 230.253 218.706 225.302 221.564L192.98 240.226C188.029 243.084 181.93 243.084 176.98 240.226L144.657 221.564C139.706 218.706 136.657 213.424 136.657 207.708L136.657 170.385C136.657 164.669 139.706 159.387 144.657 156.528L176.98 137.867C181.93 135.009 188.029 135.009 192.98 137.867L225.302 156.528C230.253 159.387 233.302 164.669 233.302 170.385L233.302 207.708Z" fill="url(#paint4_linear_202_3812)"/>
<path d="M-182.34 1528.5C-187.699 1519.22 -187.699 1507.78 -182.34 1498.5L-70.4103 1304.63C-65.0513 1295.35 -55.1475 1289.63 -44.4295 1289.63L179.429 1289.63C190.147 1289.63 200.051 1295.35 205.41 1304.63L317.34 1498.5C322.699 1507.78 322.699 1519.22 317.34 1528.5L205.41 1722.37C200.051 1731.65 190.147 1737.37 179.43 1737.37L-44.4295 1737.37C-55.1475 1737.37 -65.0513 1731.65 -70.4103 1722.37L-182.34 1528.5Z" fill="url(#paint5_linear_202_3812)"/>
</g>
<defs>
<radialGradient id="paint0_radial_202_3812" cx="0" cy="0" r="1" gradientUnits="userSpaceOnUse" gradientTransform="translate(188.296 910.1) rotate(90) scale(306.422 770.632)">
<stop offset="0.380208"/>
<stop offset="1" stop-color="#0C6372"/>
</radialGradient>
<linearGradient id="paint1_linear_202_3812" x1="-88" y1="429.736" x2="137.472" y2="429.736" gradientUnits="userSpaceOnUse">
<stop stop-color="#CAFBFF"/>
<stop offset="1" stop-color="#025563" stop-opacity="0"/>
</linearGradient>
<linearGradient id="paint2_linear_202_3812" x1="-79.4439" y1="429.305" x2="126.376" y2="429.305" gradientUnits="userSpaceOnUse">
<stop stop-color="#CAFBFF"/>
<stop offset="1" stop-color="#025563" stop-opacity="0"/>
</linearGradient>
<linearGradient id="paint3_linear_202_3812" x1="237.437" y1="219.063" x2="131.563" y2="157.937" gradientUnits="userSpaceOnUse">
<stop stop-color="#CAFBFF"/>
<stop offset="1" stop-color="#025563" stop-opacity="0"/>
</linearGradient>
<linearGradient id="paint4_linear_202_3812" x1="233.302" y1="216.946" x2="136.657" y2="161.147" gradientUnits="userSpaceOnUse">
<stop stop-color="#CAFBFF"/>
<stop offset="1" stop-color="#025563" stop-opacity="0"/>
</linearGradient>
<linearGradient id="paint5_linear_202_3812" x1="-191" y1="1513.5" x2="326" y2="1513.5" gradientUnits="userSpaceOnUse">
<stop stop-color="#CAFBFF"/>
<stop offset="1" stop-color="#025563" stop-opacity="0"/>
</linearGradient>
<clipPath id="clip0_202_3812">
<rect width="360" height="1532" fill="white"/>
</clipPath>
</defs>
</svg>
