<svg width="1728" height="1117" viewBox="0 0 1728 1117" fill="none" xmlns="http://www.w3.org/2000/svg">
<ellipse cx="837" cy="1618.05" rx="1627.68" ry="1162.28" transform="rotate(127.492 837 1618.05)" fill="url(#paint0_radial_1113_3939)"/>
<path d="M-257.56 923.826C-271.493 899.693 -271.493 869.959 -257.56 845.826L-101.142 574.902C-87.2083 550.769 -61.4583 535.902 -33.5916 535.902L279.244 535.902C307.111 535.902 332.861 550.769 346.794 574.902L503.212 845.826C517.146 869.959 517.146 899.693 503.212 923.826L346.794 1194.75C332.861 1218.88 307.111 1233.75 279.244 1233.75L-33.5916 1233.75C-61.4583 1233.75 -87.2082 1218.88 -101.142 1194.75L-257.56 923.826Z" fill="url(#paint1_linear_1113_3939)"/>
<path d="M-236.288 899.786C-241.647 890.504 -241.647 879.068 -236.288 869.786L-69.7164 581.275C-64.3574 571.993 -54.4536 566.275 -43.7356 566.275L289.409 566.275C300.127 566.275 310.03 571.993 315.389 581.275L481.962 869.786C487.321 879.068 487.321 890.504 481.962 899.786L315.389 1188.3C310.03 1197.58 300.127 1203.3 289.409 1203.3L-43.7356 1203.3C-54.4536 1203.3 -64.3574 1197.58 -69.7163 1188.3L-236.288 899.786Z" fill="url(#paint2_linear_1113_3939)"/>
<path d="M77.6602 629.5C72.3013 620.218 72.3013 608.782 77.6602 599.5L189.59 405.632C194.949 396.35 204.853 390.632 215.57 390.632L439.429 390.632C450.147 390.632 460.051 396.35 465.41 405.632L577.34 599.5C582.699 608.782 582.699 620.218 577.34 629.5L465.41 823.368C460.051 832.65 450.147 838.368 439.43 838.368L215.571 838.368C204.853 838.368 194.949 832.65 189.59 823.368L77.6602 629.5Z" fill="url(#paint3_linear_1113_3939)"/>
<path d="M964.57 -91.4617C975.288 -91.4617 985.191 -85.7438 990.55 -76.4617L1092.17 99.5486C1097.53 108.831 1097.53 120.267 1092.17 129.549L990.55 305.559C985.192 314.841 975.288 320.559 964.57 320.559L761.33 320.559C750.613 320.559 740.709 314.841 735.35 305.559L633.73 129.549C628.371 120.267 628.371 108.831 633.73 99.5486L735.35 -76.4617C740.709 -85.7438 750.613 -91.4617 761.33 -91.4617L964.57 -91.4617Z" fill="url(#paint4_linear_1113_3939)"/>
<path d="M953.124 -69.6157C963.842 -69.6157 973.746 -63.8978 979.105 -54.6157L1068.28 99.8409C1073.64 109.123 1073.64 120.559 1068.28 129.841L979.105 284.298C973.746 293.58 963.842 299.298 953.124 299.298L774.773 299.298C764.055 299.298 754.151 293.58 748.792 284.298L659.616 129.841C654.257 120.559 654.257 109.123 659.616 99.8409L748.792 -54.6157C754.151 -63.8978 764.055 -69.6157 774.773 -69.6157L953.124 -69.6157Z" fill="url(#paint5_linear_1113_3939)"/>
<path d="M1768.95 194.449C1778.24 199.808 1783.95 209.712 1783.95 220.43L1783.95 386.468C1783.95 397.186 1778.24 407.09 1768.95 412.449L1625.16 495.468C1615.88 500.827 1604.44 500.827 1595.16 495.468L1451.37 412.449C1442.09 407.09 1436.37 397.186 1436.37 386.468L1436.37 220.43C1436.37 209.712 1442.09 199.808 1451.37 194.449L1595.16 111.43C1604.44 106.071 1615.88 106.071 1625.16 111.43L1768.95 194.449Z" fill="url(#paint6_linear_1113_3939)"/>
<defs>
<radialGradient id="paint0_radial_1113_3939" cx="0" cy="0" r="1" gradientUnits="userSpaceOnUse" gradientTransform="translate(837 1618.05) rotate(90) scale(1162.28 1627.68)">
<stop offset="0.380208"/>
<stop offset="1" stop-color="#0C6372"/>
</radialGradient>
<linearGradient id="paint1_linear_1113_3939" x1="-280.076" y1="884.826" x2="525.729" y2="884.826" gradientUnits="userSpaceOnUse">
<stop stop-color="#CAFBFF"/>
<stop offset="1" stop-color="#025563" stop-opacity="0"/>
</linearGradient>
<linearGradient id="paint2_linear_1113_3939" x1="-244.949" y1="884.786" x2="490.622" y2="884.786" gradientUnits="userSpaceOnUse">
<stop stop-color="#CAFBFF"/>
<stop offset="1" stop-color="#025563" stop-opacity="0"/>
</linearGradient>
<linearGradient id="paint3_linear_1113_3939" x1="69" y1="614.5" x2="586" y2="614.5" gradientUnits="userSpaceOnUse">
<stop stop-color="#CAFBFF"/>
<stop offset="1" stop-color="#025563" stop-opacity="0"/>
</linearGradient>
<linearGradient id="paint4_linear_1113_3939" x1="981.89" y1="-91.4617" x2="744.01" y2="320.559" gradientUnits="userSpaceOnUse">
<stop stop-color="#025563" stop-opacity="0.35"/>
<stop offset="1" stop-color="#CAFBFF" stop-opacity="0.06"/>
</linearGradient>
<linearGradient id="paint5_linear_1113_3939" x1="970.444" y1="-69.6157" x2="757.452" y2="299.298" gradientUnits="userSpaceOnUse">
<stop stop-color="#025563" stop-opacity="0.35"/>
<stop offset="1" stop-color="#CAFBFF" stop-opacity="0.06"/>
</linearGradient>
<linearGradient id="paint6_linear_1113_3939" x1="1783.95" y1="203.11" x2="1436.37" y2="403.789" gradientUnits="userSpaceOnUse">
<stop stop-color="#025563" stop-opacity="0.35"/>
<stop offset="1" stop-color="#CAFBFF" stop-opacity="0.06"/>
</linearGradient>
</defs>
</svg>
