<svg width="360" height="800" viewBox="0 0 360 800" fill="none" xmlns="http://www.w3.org/2000/svg">
<g clip-path="url(#clip0_202_3499)">
<path d="M360 0H0V800H360V0Z" fill="white"/>
<path d="M196.237 671.576C199.758 671.576 202.612 661.244 202.612 648.498C202.612 635.753 199.758 625.42 196.237 625.42C192.716 625.42 189.862 635.753 189.862 648.498C189.862 661.244 192.716 671.576 196.237 671.576Z" fill="#DBDBDB"/>
<ellipse cx="823.511" cy="1598.57" rx="1610.15" ry="1151.07" transform="rotate(47.6933 823.511 1598.57)" fill="url(#paint0_radial_202_3499)"/>
<path d="M-257.56 923.826C-271.493 899.693 -271.493 869.96 -257.56 845.826L-101.142 574.902C-87.2083 550.769 -61.4583 535.902 -33.5916 535.902L279.244 535.902C307.111 535.902 332.861 550.769 346.794 574.902L503.212 845.826C517.146 869.959 517.146 899.693 503.212 923.826L346.794 1194.75C332.861 1218.88 307.111 1233.75 279.244 1233.75L-33.5916 1233.75C-61.4583 1233.75 -87.2082 1218.88 -101.142 1194.75L-257.56 923.826Z" fill="url(#paint1_linear_202_3499)"/>
<path d="M-236.288 899.787C-241.647 890.505 -241.647 879.069 -236.288 869.787L-69.7161 581.275C-64.3572 571.993 -54.4533 566.275 -43.7354 566.275L289.409 566.275C300.127 566.275 310.031 571.993 315.39 581.275L481.962 869.787C487.321 879.069 487.321 890.505 481.962 899.787L315.39 1188.3C310.031 1197.58 300.127 1203.3 289.409 1203.3L-43.7354 1203.3C-54.4533 1203.3 -64.3571 1197.58 -69.7161 1188.3L-236.288 899.787Z" fill="url(#paint2_linear_202_3499)"/>
<path d="M131.66 573.26C126.301 563.978 126.301 552.542 131.66 543.26L209.97 407.624C215.329 398.342 225.233 392.624 235.95 392.624L392.569 392.624C403.287 392.624 413.191 398.342 418.55 407.624L496.86 543.26C502.219 552.542 502.219 563.978 496.86 573.26L418.55 708.896C413.191 718.178 403.287 723.896 392.57 723.896L235.951 723.896C225.233 723.896 215.329 718.178 209.97 708.896L131.66 573.26Z" fill="url(#paint3_linear_202_3499)"/>
<path d="M386.224 29.9489C395.506 35.3079 401.224 45.2117 401.224 55.9297L401.224 87.1106C401.224 97.8286 395.506 107.732 386.224 113.091L359.22 128.682C349.938 134.041 338.503 134.041 329.22 128.682L302.217 113.091C292.935 107.732 287.217 97.8286 287.217 87.1106L287.217 55.9297C287.217 45.2117 292.935 35.3079 302.217 29.9489L329.22 14.3585C338.503 8.99949 349.938 8.99949 359.22 14.3585L386.224 29.9489Z" fill="url(#paint4_linear_202_3499)"/>
</g>
<defs>
<radialGradient id="paint0_radial_202_3499" cx="0" cy="0" r="1" gradientUnits="userSpaceOnUse" gradientTransform="translate(823.511 1598.57) rotate(90) scale(1151.07 1610.15)">
<stop offset="0.380208"/>
<stop offset="1" stop-color="#0C6372"/>
</radialGradient>
<linearGradient id="paint1_linear_202_3499" x1="-280.076" y1="884.826" x2="525.729" y2="884.826" gradientUnits="userSpaceOnUse">
<stop stop-color="#CAFBFF"/>
<stop offset="1" stop-color="#025563" stop-opacity="0"/>
</linearGradient>
<linearGradient id="paint2_linear_202_3499" x1="-244.949" y1="884.787" x2="490.622" y2="884.787" gradientUnits="userSpaceOnUse">
<stop stop-color="#CAFBFF"/>
<stop offset="1" stop-color="#025563" stop-opacity="0"/>
</linearGradient>
<linearGradient id="paint3_linear_202_3499" x1="123" y1="558.26" x2="505.52" y2="558.26" gradientUnits="userSpaceOnUse">
<stop stop-color="#CAFBFF"/>
<stop offset="1" stop-color="#025563" stop-opacity="0"/>
</linearGradient>
<linearGradient id="paint4_linear_202_3499" x1="401.224" y1="38.6092" x2="287.217" y2="104.431" gradientUnits="userSpaceOnUse">
<stop stop-color="#025563" stop-opacity="0.35"/>
<stop offset="1" stop-color="#CAFBFF" stop-opacity="0.06"/>
</linearGradient>
<clipPath id="clip0_202_3499">
<rect width="360" height="800" fill="white"/>
</clipPath>
</defs>
</svg>
