<svg width="112" height="112" viewBox="0 0 112 112" fill="none" xmlns="http://www.w3.org/2000/svg">
<path opacity="0.49" d="M111.998 55.5151C111.741 25.1088 86.8927 0.260549 56.4866 0.00204497C25.1682 -0.262541 -0.270025 25.1818 0.00216414 56.4988C0.26675 86.9018 25.118 111.744 55.5226 111.998C86.8334 112.26 112.264 86.8258 111.998 55.5149V55.5151ZM62.8747 88.45H45.1764C44.2153 82.734 43.087 75.2024 41.7976 65.8522C41.3566 69.9654 40.7453 74.1152 39.9652 78.2968L38.177 88.45H20.4376L13.528 41.6715H27.5799C27.6863 42.8925 28.8755 51.8215 31.1427 68.4615C31.3221 66.7509 32.5432 57.8188 34.8058 41.6715H48.3043L51.6055 68.4615C52.1286 60.6395 53.374 51.709 55.3431 41.6715H69.3829L62.8747 88.45ZM97.2496 65.1101C96.433 67.1249 95.0234 68.6592 93.0177 69.7085C91.0166 70.7577 88.4437 71.2823 85.3082 71.2823C81.7485 71.2823 78.9491 70.6725 76.916 69.453C74.8875 68.235 73.5479 66.7387 72.9092 64.9733C72.269 63.2063 71.9482 60.1362 71.9482 55.7705V52.1409L80.8194 52.4206C80.8179 52.4435 80.8179 52.4663 80.8179 52.4891L81.2551 51.1736L81.6834 50.1247C79.8131 50.0806 77.7736 49.9785 77.7736 49.9785L77.804 43.2179L81.3247 43.1653C81.0216 41.6689 80.7823 40.1612 80.4467 38.6698H71.9482V34.7557C71.9482 30.3688 72.932 27.4051 74.8981 25.8632C76.8643 24.3243 79.9922 23.5534 84.2788 23.5534C89.6404 23.5534 93.2777 24.6193 95.1891 26.7558C97.1021 28.8923 98.057 31.8559 98.057 35.6544C98.057 38.2227 97.2252 41.6167 96.5394 42.7587C95.8521 43.9037 94.6478 44.9468 92.9219 45.8911C94.628 46.4781 95.9023 47.4391 96.7341 48.7697C97.5704 50.1032 98.4736 51.6953 98.4736 56.6145C98.4736 60.2655 98.0661 63.0968 97.2496 65.1101Z" fill="white"/>
<path d="M86.4099 45.3234C87.2341 45.0147 87.9366 44.4582 88.4445 43.7496C88.446 43.7481 88.4475 43.7481 88.4475 43.7466C88.4536 43.739 88.4581 43.7314 88.4642 43.7237C88.4673 43.7207 88.4703 43.7161 88.4734 43.7131C89.0253 42.9315 89.3462 41.9705 89.3462 40.9562V31.6243C89.3462 30.3941 88.8885 29.2339 88.0582 28.3565C87.2265 27.4745 86.124 26.991 84.9501 26.991C82.6859 26.991 80.8186 28.8066 80.5844 31.1301C80.5829 31.1407 80.5829 31.1529 80.5814 31.1635C80.5768 31.2061 80.5738 31.2487 80.5723 31.2928C80.5632 31.4023 80.5586 31.5133 80.5586 31.6243V40.9562C80.5586 41.826 80.7943 42.6548 81.2064 43.3649C81.2216 43.3907 81.2368 43.4166 81.252 43.4424C81.7857 44.3198 82.5962 45.0102 83.5709 45.3523V48.3251C82.5399 48.6885 81.696 49.4352 81.1653 50.3871C80.7912 51.0531 80.5753 51.818 80.5601 52.6224C80.5586 52.6452 80.5586 52.668 80.5586 52.6908V62.0517C80.5586 64.6063 82.5278 66.688 84.9501 66.688C86.0738 66.688 87.1002 66.2409 87.8788 65.5034C87.8879 65.4958 87.897 65.4867 87.9062 65.4776C88.7912 64.6291 89.3462 63.4065 89.3462 62.0517V52.7212C89.3462 51.4895 88.8885 50.3308 88.0582 49.4519C87.5853 48.9486 87.0029 48.5654 86.3658 48.3358V45.3402C86.381 45.3341 86.3947 45.3295 86.4099 45.3234ZM83.095 31.4631C83.3443 30.6131 84.0894 29.9942 84.9699 29.9942C85.4869 29.9942 85.9765 30.2131 86.346 30.6039C86.7216 31.0008 86.9284 31.5285 86.9284 32.0865V40.4955C86.9284 40.8574 86.8372 41.2102 86.673 41.5189C86.5969 41.6466 86.5087 41.7652 86.4099 41.8732V39.1786C86.4099 38.4396 85.8062 37.8359 85.0687 37.8359H84.9395C84.3403 37.8359 83.8294 38.2344 83.6591 38.7802C83.6591 38.7833 83.6576 38.7863 83.6576 38.7879C83.6013 38.9354 83.5709 39.095 83.5709 39.2623V41.8412C83.2303 41.458 83.0311 40.9456 83.0311 40.4134V31.9938C83.0311 31.8128 83.0524 31.6379 83.0934 31.4707C83.0934 31.4676 83.095 31.4661 83.095 31.4631ZM86.9284 53.1835V61.5894C86.9284 62.0942 86.7612 62.558 86.4798 62.9184C86.4738 62.9275 86.4677 62.9351 86.4585 62.9442C86.0982 63.3624 85.5796 63.624 85.0048 63.624C83.9146 63.624 83.0311 62.6873 83.0311 61.5316V53.115C83.0311 52.8793 83.0706 52.6482 83.1421 52.4308C83.1467 52.4171 83.1512 52.4049 83.1558 52.3927C83.2531 52.1449 83.3945 51.9168 83.5709 51.7222V53.9742C83.5709 54.7117 84.17 55.3108 84.9045 55.3108H85.0322C85.5142 55.3108 85.9385 55.0523 86.1727 54.666C86.1742 54.663 86.1772 54.6584 86.1803 54.6539C86.3247 54.4395 86.4099 54.181 86.4099 53.9042V51.7693C86.7444 52.157 86.9284 52.6558 86.9284 53.1835Z" fill="white"/>
</svg>
