<svg width="1728" height="2576" viewBox="0 0 1728 2576" fill="none" xmlns="http://www.w3.org/2000/svg">
<g clip-path="url(#clip0_2_4201)">
<path d="M1728 0H0V2576H1728V0Z" fill="white"/>
<path d="M941.94 2164.78C958.84 2164.78 972.54 2131.51 972.54 2090.47C972.54 2049.43 958.84 2016.16 941.94 2016.16C925.04 2016.16 911.34 2049.43 911.34 2090.47C911.34 2131.51 925.04 2164.78 941.94 2164.78Z" fill="#DBDBDB"/>
<rect width="1728" height="1117" fill="white"/>
<g filter="url(#filter0_b_2_4201)">
<rect width="1728" height="81" fill="#FFFCFE" fill-opacity="0.6"/>
</g>
<ellipse cx="890.864" cy="1483.48" rx="1627.68" ry="1033.87" transform="rotate(42.5664 890.864 1483.48)" fill="url(#paint0_radial_2_4201)"/>
<path d="M1428.79 120.451C1456.65 120.451 1482.4 135.318 1496.34 159.451L1652.76 430.375C1666.69 454.508 1666.69 484.242 1652.76 508.375L1496.34 779.299C1482.4 803.432 1456.65 818.299 1428.79 818.299L1115.95 818.299C1088.09 818.299 1062.34 803.432 1048.4 779.299L891.984 508.375C878.051 484.242 878.051 454.508 891.984 430.375L1048.4 159.451C1062.34 135.318 1088.09 120.451 1115.95 120.451L1428.79 120.451Z" fill="url(#paint1_linear_2_4201)"/>
<path d="M1438.97 153.893C1449.69 153.893 1459.59 159.611 1464.95 168.893L1631.52 457.404C1636.88 466.686 1636.88 478.122 1631.52 487.404L1464.95 775.915C1459.59 785.197 1449.69 790.915 1438.97 790.915L1105.83 790.915C1095.11 790.915 1085.21 785.197 1079.85 775.915L913.274 487.404C907.915 478.122 907.915 466.686 913.274 457.404L1079.85 168.893C1085.21 159.611 1095.11 153.893 1105.83 153.893L1438.97 153.893Z" fill="url(#paint2_linear_2_4201)"/>
<path d="M1128.57 -94.37C1139.29 -94.37 1149.2 -88.652 1154.56 -79.37L1232.87 56.2661C1238.22 65.5481 1238.22 76.984 1232.87 86.266L1154.56 221.902C1149.2 231.184 1139.29 236.902 1128.57 236.902L971.956 236.902C961.238 236.902 951.334 231.184 945.975 221.902L867.666 86.266C862.307 76.984 862.307 65.5481 867.666 56.266L945.975 -79.37C951.334 -88.652 961.238 -94.37 971.956 -94.37L1128.57 -94.37Z" fill="url(#paint3_linear_2_4201)"/>
</g>
<defs>
<filter id="filter0_b_2_4201" x="-10" y="-10" width="1748" height="101" filterUnits="userSpaceOnUse" color-interpolation-filters="sRGB">
<feFlood flood-opacity="0" result="BackgroundImageFix"/>
<feGaussianBlur in="BackgroundImage" stdDeviation="5"/>
<feComposite in2="SourceAlpha" operator="in" result="effect1_backgroundBlur_2_4201"/>
<feBlend mode="normal" in="SourceGraphic" in2="effect1_backgroundBlur_2_4201" result="shape"/>
</filter>
<radialGradient id="paint0_radial_2_4201" cx="0" cy="0" r="1" gradientUnits="userSpaceOnUse" gradientTransform="translate(890.864 1483.48) rotate(90) scale(1033.87 1627.68)">
<stop offset="0.380208"/>
<stop offset="1" stop-color="#0C6372"/>
</radialGradient>
<linearGradient id="paint1_linear_2_4201" x1="1473.82" y1="120.451" x2="1070.92" y2="818.299" gradientUnits="userSpaceOnUse">
<stop stop-color="#CAFBFF"/>
<stop offset="1" stop-color="#025563" stop-opacity="0"/>
</linearGradient>
<linearGradient id="paint2_linear_2_4201" x1="1456.29" y1="153.893" x2="1088.51" y2="790.915" gradientUnits="userSpaceOnUse">
<stop stop-color="#CAFBFF"/>
<stop offset="1" stop-color="#025563" stop-opacity="0"/>
</linearGradient>
<linearGradient id="paint3_linear_2_4201" x1="1145.9" y1="-94.37" x2="954.635" y2="236.902" gradientUnits="userSpaceOnUse">
<stop stop-color="#CAFBFF"/>
<stop offset="1" stop-color="#025563" stop-opacity="0"/>
</linearGradient>
<clipPath id="clip0_2_4201">
<rect width="1728" height="2576" fill="white"/>
</clipPath>
</defs>
</svg>
