<svg width="360" height="2325" viewBox="0 0 360 2325" fill="none" xmlns="http://www.w3.org/2000/svg">
<g clip-path="url(#clip0_202_3351)">
<rect width="360" height="2325" fill="white"/>
<ellipse cx="141.056" cy="1312.72" rx="1228.37" ry="452.543" transform="rotate(87.2177 141.056 1312.72)" fill="url(#paint0_radial_202_3351)"/>
<path d="M-51.4982 177C-57.2145 167.099 -57.2145 154.901 -51.4982 145L-13.6055 79.3679C-7.88928 69.4671 2.67478 63.3679 14.1073 63.3679L89.8927 63.3679C101.325 63.3679 111.889 69.467 117.606 79.3679L155.498 145C161.215 154.901 161.214 167.099 155.498 177L117.606 242.632C111.889 252.533 101.325 258.632 89.8927 258.632L14.1073 258.632C2.6748 258.632 -7.88927 252.533 -13.6055 242.632L-51.4982 177Z" fill="url(#paint1_linear_202_3351)"/>
<path d="M381.437 667.248C381.437 673.322 378.197 678.934 372.937 681.971L337 702.719C331.74 705.756 325.26 705.756 320 702.719L284.063 681.971C278.803 678.934 275.563 673.322 275.563 667.248L275.563 625.752C275.563 619.678 278.803 614.066 284.063 611.029L320 590.281C325.26 587.244 331.74 587.244 337 590.281L372.937 611.029C378.197 614.066 381.437 619.678 381.437 625.752L381.437 667.248Z" fill="url(#paint2_linear_202_3351)"/>
<path d="M-43.5194 175.569C-48.8784 166.287 -48.8784 154.851 -43.5194 145.569L-9.3851 86.4469C-4.02611 77.1648 5.8777 71.4469 16.5957 71.4469L84.8644 71.4469C95.5823 71.4469 105.486 77.1648 110.845 86.4469L144.979 145.569C150.338 154.851 150.338 166.287 144.979 175.569L110.845 234.692C105.486 243.974 95.5823 249.692 84.8644 249.692L16.5957 249.692C5.87772 249.692 -4.0261 243.974 -9.38508 234.692L-43.5194 175.569Z" fill="url(#paint3_linear_202_3351)"/>
<path d="M377.302 665.708C377.302 671.424 374.253 676.706 369.302 679.564L336.98 698.226C332.029 701.084 325.93 701.084 320.98 698.226L288.657 679.564C283.706 676.706 280.657 671.424 280.657 665.708L280.657 628.385C280.657 622.669 283.706 617.387 288.657 614.528L320.98 595.867C325.93 593.009 332.029 593.009 336.98 595.867L369.302 614.528C374.253 617.387 377.302 622.669 377.302 628.385L377.302 665.708Z" fill="url(#paint4_linear_202_3351)"/>
<path d="M249.095 -37.3343C254.097 -37.3343 258.719 -34.6659 261.22 -30.3343L284.802 10.5124C287.303 14.844 287.303 20.1807 284.802 24.5124L261.22 65.359C258.719 69.6906 254.097 72.359 249.095 72.359L201.93 72.359C196.928 72.359 192.306 69.6906 189.805 65.359L166.222 24.5124C163.722 20.1807 163.722 14.844 166.222 10.5124L189.805 -30.3343C192.306 -34.6659 196.928 -37.3343 201.93 -37.3343L249.095 -37.3343Z" fill="url(#paint5_linear_202_3351)"/>
<path d="M-16.6786 1242.77C-21.6803 1242.74 -26.2844 1240.04 -28.7567 1235.69L-74.7601 1154.78C-77.2324 1150.44 -77.1973 1145.1 -74.6681 1140.79L-27.6048 1060.49C-25.0756 1056.18 -20.4363 1053.54 -15.4347 1053.57L77.6319 1054.18C82.6335 1054.22 87.2377 1056.92 89.71 1061.26L135.713 1142.17C138.186 1146.52 138.151 1151.85 135.621 1156.17L88.5581 1236.46C86.0288 1240.78 81.3896 1243.41 76.388 1243.38L-16.6786 1242.77Z" fill="url(#paint6_linear_202_3351)"/>
</g>
<defs>
<radialGradient id="paint0_radial_202_3351" cx="0" cy="0" r="1" gradientUnits="userSpaceOnUse" gradientTransform="translate(141.056 1312.72) rotate(90) scale(452.543 1228.37)">
<stop offset="0.380208"/>
<stop offset="1" stop-color="#0C6372"/>
</radialGradient>
<linearGradient id="paint1_linear_202_3351" x1="-60.7358" y1="161" x2="164.736" y2="161" gradientUnits="userSpaceOnUse">
<stop stop-color="#CAFBFF"/>
<stop offset="1" stop-color="#025563" stop-opacity="0"/>
</linearGradient>
<linearGradient id="paint2_linear_202_3351" x1="381.437" y1="677.063" x2="275.563" y2="615.937" gradientUnits="userSpaceOnUse">
<stop stop-color="#CAFBFF"/>
<stop offset="1" stop-color="#025563" stop-opacity="0"/>
</linearGradient>
<linearGradient id="paint3_linear_202_3351" x1="-52.1797" y1="160.569" x2="153.64" y2="160.569" gradientUnits="userSpaceOnUse">
<stop stop-color="#CAFBFF"/>
<stop offset="1" stop-color="#025563" stop-opacity="0"/>
</linearGradient>
<linearGradient id="paint4_linear_202_3351" x1="377.302" y1="674.946" x2="280.657" y2="619.147" gradientUnits="userSpaceOnUse">
<stop stop-color="#CAFBFF"/>
<stop offset="1" stop-color="#025563" stop-opacity="0"/>
</linearGradient>
<linearGradient id="paint5_linear_202_3351" x1="257.178" y1="-37.3343" x2="193.847" y2="72.359" gradientUnits="userSpaceOnUse">
<stop stop-color="#CAFBFF"/>
<stop offset="1" stop-color="#025563" stop-opacity="0"/>
</linearGradient>
<linearGradient id="paint6_linear_202_3351" x1="-24.7614" y1="1242.72" x2="85.7146" y2="1054.24" gradientUnits="userSpaceOnUse">
<stop stop-color="#CAFBFF"/>
<stop offset="1" stop-color="#025563" stop-opacity="0"/>
</linearGradient>
<clipPath id="clip0_202_3351">
<rect width="360" height="2325" fill="white"/>
</clipPath>
</defs>
</svg>
