<svg width="1728" height="1117" viewBox="0 0 1728 1117" fill="none" xmlns="http://www.w3.org/2000/svg">
<path d="M1728 0H0V1117H1728V0Z" fill="white"/>
<path d="M941.94 938.689C958.84 938.689 972.54 924.262 972.54 906.466C972.54 888.669 958.84 874.243 941.94 874.243C925.04 874.243 911.34 888.669 911.34 906.466C911.34 924.262 925.04 938.689 941.94 938.689Z" fill="#DBDBDB"/>
<path d="M633.78 740.423C637.309 740.423 640.17 737.41 640.17 733.694C640.17 729.977 637.309 726.965 633.78 726.965C630.251 726.965 627.39 729.977 627.39 733.694C627.39 737.41 630.251 740.423 633.78 740.423Z" fill="white"/>
<path d="M1329.39 1077.34C1339.08 1077.34 1346.94 1069.07 1346.94 1058.86C1346.94 1048.65 1339.08 1040.38 1329.39 1040.38C1319.7 1040.38 1311.84 1048.65 1311.84 1058.86C1311.84 1069.07 1319.7 1077.34 1329.39 1077.34Z" fill="white"/>
<path d="M1609.2 805.437C1624.66 805.437 1637.19 792.241 1637.19 775.963C1637.19 759.684 1624.66 746.488 1609.2 746.488C1593.74 746.488 1581.21 759.684 1581.21 775.963C1581.21 792.241 1593.74 805.437 1609.2 805.437Z" fill="white"/>
<path d="M1527.21 885.9C1531.19 885.9 1534.41 882.505 1534.41 878.318C1534.41 874.13 1531.19 870.736 1527.21 870.736C1523.23 870.736 1520.01 874.13 1520.01 878.318C1520.01 882.505 1523.23 885.9 1527.21 885.9Z" fill="white"/>
<path d="M948.06 196.897C951.34 196.897 954 194.096 954 190.642C954 187.187 951.34 184.387 948.06 184.387C944.779 184.387 942.12 187.187 942.12 190.642C942.12 194.096 944.779 196.897 948.06 196.897Z" fill="white"/>
<path d="M819.72 283.425C828.368 283.425 835.38 276.042 835.38 266.934C835.38 257.827 828.368 250.444 819.72 250.444C811.071 250.444 804.06 257.827 804.06 266.934C804.06 276.042 811.071 283.425 819.72 283.425Z" fill="white"/>
<path d="M1020.69 921.44C1025.51 921.44 1029.42 917.324 1029.42 912.247C1029.42 907.17 1025.51 903.054 1020.69 903.054C1015.87 903.054 1011.96 907.17 1011.96 912.247C1011.96 917.324 1015.87 921.44 1020.69 921.44Z" fill="white"/>
<path d="M966.6 957.928C983.35 957.928 996.93 943.628 996.93 925.989C996.93 908.35 983.35 894.05 966.6 894.05C949.849 894.05 936.27 908.35 936.27 925.989C936.27 943.628 949.849 957.928 966.6 957.928Z" fill="white"/>
<rect width="1728" height="1117" fill="white"/>
<g filter="url(#filter0_b_1104_3744)">
<rect width="1728" height="81" fill="#FFFCFE" fill-opacity="0.6"/>
</g>
<ellipse cx="804" cy="1578.05" rx="1627.68" ry="1162.28" transform="rotate(42.5664 804 1578.05)" fill="url(#paint0_radial_1104_3744)"/>
<path d="M1428.79 120.451C1456.65 120.451 1482.4 135.318 1496.34 159.451L1652.76 430.375C1666.69 454.508 1666.69 484.242 1652.76 508.375L1496.34 779.299C1482.4 803.432 1456.65 818.299 1428.79 818.299L1115.95 818.299C1088.09 818.299 1062.34 803.432 1048.4 779.299L891.984 508.375C878.051 484.242 878.051 454.508 891.984 430.375L1048.4 159.451C1062.34 135.318 1088.09 120.451 1115.95 120.451L1428.79 120.451Z" fill="url(#paint1_linear_1104_3744)"/>
<path d="M1438.97 153.893C1449.69 153.893 1459.59 159.611 1464.95 168.893L1631.52 457.404C1636.88 466.686 1636.88 478.122 1631.52 487.404L1464.95 775.915C1459.59 785.197 1449.69 790.915 1438.97 790.915L1105.83 790.915C1095.11 790.915 1085.21 785.197 1079.85 775.915L913.274 487.404C907.915 478.122 907.915 466.686 913.274 457.404L1079.85 168.893C1085.21 159.611 1095.11 153.893 1105.83 153.893L1438.97 153.893Z" fill="url(#paint2_linear_1104_3744)"/>
<path d="M1128.57 -94.37C1139.29 -94.37 1149.2 -88.652 1154.56 -79.37L1232.87 56.2661C1238.22 65.5481 1238.22 76.984 1232.87 86.266L1154.56 221.902C1149.2 231.184 1139.29 236.902 1128.57 236.902L971.956 236.902C961.238 236.902 951.334 231.184 945.975 221.902L867.666 86.266C862.307 76.984 862.307 65.5481 867.666 56.266L945.975 -79.37C951.334 -88.652 961.238 -94.37 971.956 -94.37L1128.57 -94.37Z" fill="url(#paint3_linear_1104_3744)"/>
<defs>
<filter id="filter0_b_1104_3744" x="-10" y="-10" width="1748" height="101" filterUnits="userSpaceOnUse" color-interpolation-filters="sRGB">
<feFlood flood-opacity="0" result="BackgroundImageFix"/>
<feGaussianBlur in="BackgroundImage" stdDeviation="5"/>
<feComposite in2="SourceAlpha" operator="in" result="effect1_backgroundBlur_1104_3744"/>
<feBlend mode="normal" in="SourceGraphic" in2="effect1_backgroundBlur_1104_3744" result="shape"/>
</filter>
<radialGradient id="paint0_radial_1104_3744" cx="0" cy="0" r="1" gradientUnits="userSpaceOnUse" gradientTransform="translate(804 1578.05) rotate(90) scale(1162.28 1627.68)">
<stop offset="0.380208"/>
<stop offset="1" stop-color="#0C6372"/>
</radialGradient>
<linearGradient id="paint1_linear_1104_3744" x1="1473.82" y1="120.451" x2="1070.92" y2="818.299" gradientUnits="userSpaceOnUse">
<stop stop-color="#CAFBFF"/>
<stop offset="1" stop-color="#025563" stop-opacity="0"/>
</linearGradient>
<linearGradient id="paint2_linear_1104_3744" x1="1456.29" y1="153.893" x2="1088.51" y2="790.915" gradientUnits="userSpaceOnUse">
<stop stop-color="#CAFBFF"/>
<stop offset="1" stop-color="#025563" stop-opacity="0"/>
</linearGradient>
<linearGradient id="paint3_linear_1104_3744" x1="1145.9" y1="-94.37" x2="954.635" y2="236.902" gradientUnits="userSpaceOnUse">
<stop stop-color="#CAFBFF"/>
<stop offset="1" stop-color="#025563" stop-opacity="0"/>
</linearGradient>
</defs>
</svg>
