<svg width="1728" height="1117" viewBox="0 0 1728 1117" fill="none" xmlns="http://www.w3.org/2000/svg">
<g clip-path="url(#clip0_64_3118)">
<path d="M1728 0H0V1117H1728V0Z" fill="white"/>
<path d="M941.94 937.689C958.84 937.689 972.54 923.262 972.54 905.466C972.54 887.669 958.84 873.243 941.94 873.243C925.04 873.243 911.34 887.669 911.34 905.466C911.34 923.262 925.04 937.689 941.94 937.689Z" fill="#DBDBDB"/>
<ellipse cx="823.511" cy="1598.57" rx="1610.15" ry="1151.07" transform="rotate(47.6933 823.511 1598.57)" fill="url(#paint0_radial_64_3118)"/>
<path d="M-257.56 923.826C-271.493 899.693 -271.493 869.96 -257.56 845.826L-101.142 574.902C-87.2083 550.769 -61.4583 535.902 -33.5916 535.902L279.244 535.902C307.111 535.902 332.861 550.769 346.794 574.902L503.212 845.826C517.146 869.959 517.146 899.693 503.212 923.826L346.794 1194.75C332.861 1218.88 307.111 1233.75 279.244 1233.75L-33.5916 1233.75C-61.4583 1233.75 -87.2082 1218.88 -101.142 1194.75L-257.56 923.826Z" fill="url(#paint1_linear_64_3118)"/>
<path d="M-236.288 899.787C-241.647 890.505 -241.647 879.069 -236.288 869.787L-69.7159 581.275C-64.3569 571.993 -54.4531 566.275 -43.7351 566.275L289.409 566.275C300.127 566.275 310.031 571.993 315.39 581.275L481.962 869.787C487.321 879.069 487.321 890.505 481.962 899.787L315.39 1188.3C310.031 1197.58 300.127 1203.3 289.409 1203.3L-43.7351 1203.3C-54.4531 1203.3 -64.3569 1197.58 -69.7159 1188.3L-236.288 899.787Z" fill="url(#paint2_linear_64_3118)"/>
<path d="M131.66 573.26C126.301 563.978 126.301 552.542 131.66 543.26L209.97 407.624C215.329 398.342 225.233 392.624 235.95 392.624L392.569 392.624C403.287 392.624 413.191 398.342 418.55 407.624L496.86 543.26C502.219 552.542 502.219 563.978 496.86 573.26L418.55 708.896C413.191 718.178 403.287 723.896 392.57 723.896L235.951 723.896C225.233 723.896 215.329 718.178 209.97 708.896L131.66 573.26Z" fill="url(#paint3_linear_64_3118)"/>
<path d="M1670.2 235.855C1679.48 241.214 1685.2 251.118 1685.2 261.836L1685.2 509.538C1685.2 520.256 1679.48 530.159 1670.2 535.518L1455.69 659.369C1446.4 664.728 1434.97 664.728 1425.69 659.369L1211.17 535.518C1201.89 530.159 1196.17 520.256 1196.17 509.538L1196.17 261.836C1196.17 251.118 1201.89 241.214 1211.17 235.855L1425.69 112.005C1434.97 106.646 1446.4 106.646 1455.69 112.005L1670.2 235.855Z" fill="url(#paint4_linear_64_3118)"/>
</g>
<defs>
<radialGradient id="paint0_radial_64_3118" cx="0" cy="0" r="1" gradientUnits="userSpaceOnUse" gradientTransform="translate(823.511 1598.57) rotate(90) scale(1151.07 1610.15)">
<stop offset="0.380208"/>
<stop offset="1" stop-color="#0C6372"/>
</radialGradient>
<linearGradient id="paint1_linear_64_3118" x1="-280.076" y1="884.826" x2="525.729" y2="884.826" gradientUnits="userSpaceOnUse">
<stop stop-color="#CAFBFF"/>
<stop offset="1" stop-color="#025563" stop-opacity="0"/>
</linearGradient>
<linearGradient id="paint2_linear_64_3118" x1="-244.948" y1="884.787" x2="490.622" y2="884.787" gradientUnits="userSpaceOnUse">
<stop stop-color="#CAFBFF"/>
<stop offset="1" stop-color="#025563" stop-opacity="0"/>
</linearGradient>
<linearGradient id="paint3_linear_64_3118" x1="123" y1="558.26" x2="505.52" y2="558.26" gradientUnits="userSpaceOnUse">
<stop stop-color="#CAFBFF"/>
<stop offset="1" stop-color="#025563" stop-opacity="0"/>
</linearGradient>
<linearGradient id="paint4_linear_64_3118" x1="1685.2" y1="244.516" x2="1196.17" y2="526.858" gradientUnits="userSpaceOnUse">
<stop stop-color="#025563" stop-opacity="0.35"/>
<stop offset="1" stop-color="#CAFBFF" stop-opacity="0.06"/>
</linearGradient>
<clipPath id="clip0_64_3118">
<rect width="1728" height="1117" fill="white"/>
</clipPath>
</defs>
</svg>
