<svg width="30" height="25" viewBox="0 0 30 25" fill="none" xmlns="http://www.w3.org/2000/svg">
<path d="M21.7245 12.17C21.893 12.1265 22.5129 12.2824 22.4975 12.0586C22.4522 11.3743 22.3843 10.6946 22.1758 10.0366C21.381 7.41372 19.1505 5.38902 16.4615 4.85248C11.6553 3.91536 11.4831 7.68743 9.45753 3.35526C8.563 2.01119 9.25361 1.2508 10.6249 0.814863C13.5667 -0.325277 16.8793 -0.272711 19.7695 0.996126C24.1923 2.79878 27.1179 7.26599 27.2203 12.0151C27.2276 12.1419 27.2792 12.1719 27.3962 12.1737C28.2399 12.2253 29.4345 11.9299 29.8731 12.8742C30.0779 13.3301 30.0344 13.7642 29.7399 14.1766C28.2245 16.2285 26.8016 18.3638 25.1567 20.3133C24.7044 20.7709 23.8271 20.7084 23.4528 20.1791C22.2429 18.2568 21.1743 16.243 20.0188 14.2854C19.339 13.4769 19.7904 12.2706 20.8698 12.1963C21.1544 12.1755 21.439 12.1764 21.7236 12.17H21.7245Z" fill="white"/>
<path d="M14.9621 19.6409C17.1825 19.9019 18.716 18.0757 19.6006 19.3853C19.9921 19.9898 20.3138 20.6379 20.6818 21.2532C20.9483 21.5677 20.9392 21.9393 20.9174 22.3182C20.8268 23.0976 19.8933 23.3269 19.2861 23.6024C11.6984 26.673 2.78306 20.5934 2.77853 12.4285C2.79303 11.9898 1.23598 12.3578 0.810016 12.1185C-1.25275 11.1315 1.1952 9.13404 1.86859 7.98936C2.80572 6.71146 3.75462 5.44263 4.71078 4.17923C5.14128 3.60282 6.24336 3.62638 6.60769 4.32605C7.84209 6.34803 9.02301 8.40355 10.1632 10.4799C10.4033 10.9331 10.3245 11.4243 9.97827 11.8049C9.47164 12.5617 7.45872 11.9246 7.51582 12.3841C7.51944 16.3102 11.0405 19.7633 14.963 19.64L14.9621 19.6409Z" fill="white"/>
</svg>
