<svg width="20" height="17" viewBox="0 0 20 17" fill="none" xmlns="http://www.w3.org/2000/svg">
<path d="M14.4829 8.11332C14.5953 8.08432 15.0086 8.18825 14.9983 8.03901C14.9681 7.58283 14.9228 7.12968 14.7838 6.69103C14.2539 4.94246 12.767 3.59266 10.9743 3.23497C7.77021 2.61022 7.65542 5.12493 6.30502 2.23683C5.70867 1.34079 6.16907 0.833862 7.08323 0.54324C9.04448 -0.21685 11.2529 -0.181806 13.1797 0.664081C16.1282 1.86584 18.0786 4.84397 18.1468 8.01C18.1517 8.09459 18.1861 8.11453 18.264 8.11574C18.8266 8.15018 19.6229 7.95321 19.9153 8.58279C20.0519 8.88671 20.0229 9.17612 19.8265 9.45103C18.8163 10.819 17.8677 12.2425 16.7711 13.5421C16.4696 13.8472 15.8847 13.8055 15.6352 13.4527C14.8285 12.1712 14.1162 10.8286 13.3458 9.52354C12.8927 8.98459 13.1936 8.18039 13.9132 8.13085C14.1029 8.11695 14.2926 8.11755 14.4823 8.11332H14.4829Z" fill="#A1F8FF"/>
<path d="M9.97467 13.0938C11.455 13.2678 12.4773 12.0503 13.067 12.9234C13.328 13.3264 13.5425 13.7584 13.7878 14.1686C13.9654 14.3783 13.9594 14.626 13.9449 14.8786C13.8845 15.3982 13.2621 15.5511 12.8573 15.7347C7.79893 17.7818 1.85536 13.7288 1.85234 8.2855C1.86201 7.99307 0.823985 8.23838 0.540008 8.07887C-0.835162 7.42089 0.796795 6.08922 1.24572 5.32611C1.87047 4.47418 2.50307 3.62829 3.14051 2.78603C3.4275 2.40176 4.16222 2.41746 4.40511 2.88391C5.22803 4.23189 6.01531 5.60223 6.7754 6.98646C6.93552 7.28857 6.88295 7.61604 6.65215 7.86981C6.3144 8.37432 4.97246 7.94957 5.01052 8.2559C5.01294 10.8733 7.36027 13.1753 9.97527 13.0932L9.97467 13.0938Z" fill="#A1F8FF"/>
</svg>
