<svg width="85" height="85" viewBox="0 0 85 85" fill="none" xmlns="http://www.w3.org/2000/svg">
<circle cx="42.0096" cy="42.0096" r="42.0096" fill="white"/>
<path d="M16.0923 51.9538C16.0917 47.6235 19.4719 44.1331 23.7488 44.0478C28.1721 43.9599 31.6479 47.2874 31.843 51.8949C31.9048 53.3529 32.1109 54.6795 33.3638 55.5977C35.1032 56.8719 38.1554 56.1199 39.5999 54.082C40.8722 52.2873 40.4723 50.0908 38.3785 48.8372C35.3176 47.0051 33.9375 44.3975 33.8567 40.8791C33.793 38.1028 31.2986 36.6258 28.721 37.682C27.8318 38.0464 26.9948 38.5638 26.0821 38.8419C21.9118 40.1132 17.3717 37.5397 16.2659 33.3308C15.1095 28.9291 17.8388 24.4469 22.2515 23.5004C26.6397 22.5594 30.9197 25.4516 31.6557 29.872C31.7696 30.5568 31.8115 31.2553 31.8614 31.9491C32.0597 34.7064 34.5447 36.3943 37.0016 35.123C40.2869 33.4229 43.3002 33.3328 46.6025 35.1246C49.2555 36.5643 51.7749 34.6688 51.877 31.4646C51.9961 27.7193 53.9238 24.9282 57.1708 23.7991C60.4332 22.6647 64.2043 23.8387 66.2077 26.6128C68.2451 29.4339 68.1437 33.4274 65.9643 36.206C63.8479 38.9041 60.0855 39.883 56.8257 38.5841C51.4356 36.4362 50.3176 37.1196 49.6225 42.8194C49.327 45.2448 48.0264 47.112 45.9355 48.3781C44.3139 49.3597 43.1257 50.5627 43.4788 52.6453C43.757 54.2865 45.6499 55.9051 47.6147 56.2422C49.9918 56.6497 51.7859 54.9648 51.8789 52.2367C52.0196 48.1177 54.3375 45.1508 58.0828 44.2967C61.4412 43.5308 64.8717 45.012 66.6287 47.987C68.3655 50.9275 67.9609 54.8923 65.6665 57.414C63.3554 59.9537 59.4958 60.6983 56.3837 59.2004C55.9017 58.9686 55.442 58.6863 54.9495 58.4818C52.6171 57.5132 50.457 58.6154 49.8878 61.0637C49.7793 61.5308 49.7107 62.0137 49.6843 62.4928C49.43 67.1124 46.1769 70.3372 41.8009 70.2921C37.3413 70.2464 34.0756 66.9248 33.8937 62.2635C33.8731 61.7311 33.8741 61.1767 33.7241 60.6745C33.0229 58.3247 30.6055 57.4015 28.259 58.6927C26.2299 59.8095 24.1335 60.2103 21.9144 59.6453C18.3191 58.7307 16.093 55.7284 16.0923 51.9538Z" fill="#F7931A"/>
<path d="M34.0332 20.8561C34.0499 16.4701 37.4891 13.0187 41.8609 13.0001C46.2958 12.9814 49.7861 16.4888 49.7688 20.9472C49.7517 25.2849 46.2588 28.7994 41.9279 28.837C37.5599 28.8747 34.0165 25.2926 34.0335 20.8561H34.0332Z" fill="#F7931A"/>
</svg>
