<svg width="116" height="116" viewBox="0 0 116 116" fill="none" xmlns="http://www.w3.org/2000/svg">
<circle cx="58" cy="58" r="58" fill="white"/>
<path d="M57.3687 45.5438V6.39886C57.3687 6.39886 44.7202 12.7231 44.7202 26.1349C44.7202 39.5466 57.3687 45.5438 57.3687 45.5438Z" fill="#165121"/>
<path d="M57.3687 6.39886C57.3687 6.39886 70.0171 12.7231 70.0171 26.1349C70.0171 39.5466 57.3687 45.5438 57.3687 45.5438V6.39886Z" fill="#328F27"/>
<path d="M86.9186 63.9713L104.256 54.0488C104.256 54.0488 98.2586 50.0143 92.2615 53.3945C86.3734 56.7748 86.9186 63.9713 86.9186 63.9713Z" fill="#165121"/>
<path d="M104.256 54.0488C104.256 54.0488 104.692 61.2454 98.6946 64.6256C92.6975 68.0058 86.9185 63.8623 86.9185 63.8623L104.256 54.0488Z" fill="#328F27"/>
<path d="M105.128 52.4132C104.801 52.1951 97.495 48.3788 91.2798 51.977C86.264 54.8121 85.2826 60.5911 85.1736 62.99L82.8838 64.2984C81.7934 63.208 80.1578 62.4448 78.4132 62.4448C76.6686 62.4448 75.142 63.099 74.0517 64.1894L63.5839 58.0832C63.693 57.538 63.802 57.1019 63.802 56.5567C63.802 53.6126 61.8393 51.2138 59.2224 50.4505V46.7432C62.2755 44.7805 71.9799 37.693 71.9799 26.2439C71.9799 13.0502 58.8953 4.87231 58.3501 4.54519L57.4778 4L56.6055 4.54519C56.0603 4.87231 42.9756 13.1593 42.9756 26.2439C42.9756 37.5839 52.6801 44.7805 55.7331 46.7432V50.6686C53.1162 51.4319 51.1535 53.8307 51.1535 56.7748C51.1535 57.3199 51.2626 57.7561 51.3716 58.3013L40.9039 64.4075C39.8135 63.3171 38.1779 62.6628 36.5423 62.6628C33.0531 62.6628 30.2181 65.4979 30.2181 68.9871C30.2181 71.8221 32.1808 74.33 34.7977 75.0933V87.6327C31.9627 88.287 30 90.7948 30 93.6299C30 97.1191 32.835 99.9541 36.3242 99.9541C38.1779 99.9541 39.8135 99.1908 41.0129 97.8824L51.2626 103.77C51.1535 104.207 51.0445 104.752 51.0445 105.297C51.0445 108.786 53.8795 111.621 57.3687 111.621C60.858 111.621 63.693 108.786 63.693 105.297C63.693 104.752 63.5839 104.316 63.4749 103.77L73.7245 97.8824C74.924 99.1908 76.5595 99.9541 78.4132 99.9541C81.9024 99.9541 84.7375 97.1191 84.7375 93.6299C84.7375 90.7948 82.7748 88.287 80.1578 87.5237V74.9842C82.7748 74.221 84.7375 71.8221 84.7375 68.8781C84.7375 68.3329 84.6284 67.8967 84.5194 67.3515L86.8092 66.043C88.1177 66.6973 90.7346 67.6786 93.7877 67.6786C95.6413 67.6786 97.604 67.2425 99.4577 66.1521C105.673 62.5538 106 54.2669 106 53.9397V52.8494L105.128 52.4132ZM80.1578 71.0588C79.7217 71.495 79.0674 71.7131 78.4132 71.7131C78.0861 71.7131 77.759 71.604 77.4319 71.495C77.1047 71.3859 76.8867 71.2769 76.6686 71.0588C76.1234 70.6227 75.6872 69.9684 75.5782 69.2052C75.5782 69.0961 75.5782 68.9871 75.5782 68.769C75.5782 68.66 75.5782 68.5509 75.5782 68.4419C75.6872 67.3515 76.4505 66.5882 77.3228 66.1521C77.6499 66.043 77.9771 65.934 78.4132 65.934C78.8494 65.934 79.1765 66.043 79.5036 66.1521C80.4849 66.5882 81.2482 67.5696 81.2482 68.769C81.2482 68.8781 81.2482 69.0961 81.2482 69.2052C81.1392 70.0775 80.703 70.6227 80.1578 71.0588ZM81.2482 93.6299C81.2482 95.1564 79.9397 96.4649 78.4132 96.4649C77.868 96.4649 77.3228 96.3558 76.8867 96.0287C76.1234 95.4835 75.5782 94.6112 75.5782 93.6299C75.5782 93.6299 75.5782 93.6299 75.5782 93.5208C75.5782 93.1937 75.6872 92.9756 75.7963 92.6485C76.0144 92.1033 76.3415 91.6672 76.6686 91.34C76.9957 91.0129 77.4319 90.9039 77.977 90.7948C78.0861 90.7948 78.3042 90.7948 78.4132 90.7948C79.0674 90.7948 79.7217 91.0129 80.1578 91.4491C80.8121 91.9943 81.2482 92.7575 81.2482 93.6299ZM76.6686 87.5237C75.7963 87.7418 75.033 88.1779 74.3788 88.7231L63.5839 82.5079C63.693 82.0717 63.693 81.6356 63.693 81.3085C63.693 80.6542 63.5839 80.109 63.4749 79.5639L74.0517 73.4577C74.8149 74.1119 75.6872 74.6571 76.6686 74.9842V87.5237V87.5237ZM57.3687 108.132C55.9512 108.132 54.7518 107.042 54.5337 105.733C54.5337 105.624 54.5337 105.406 54.5337 105.297C54.5337 104.098 55.297 103.116 56.2783 102.68C56.6055 102.571 56.9326 102.462 57.3687 102.462C57.6958 102.462 58.132 102.571 58.4591 102.68C59.4405 103.116 60.2037 104.098 60.2037 105.297C60.2037 105.406 60.2037 105.624 60.2037 105.733C59.9857 107.042 58.7862 108.132 57.3687 108.132ZM51.1535 82.6169L40.3587 88.8321C39.7044 88.287 38.9412 87.8508 38.0689 87.6327V74.9842C39.0502 74.6571 39.9225 74.1119 40.6858 73.4577L51.2626 79.5639C51.0445 80.109 51.0445 80.7633 51.0445 81.3085C51.0445 81.7446 51.0445 82.1808 51.1535 82.6169ZM39.1593 93.6299C39.1593 94.6112 38.6141 95.5925 37.8508 96.0287C37.4146 96.3558 36.8694 96.4649 36.3242 96.4649C34.7977 96.4649 33.4892 95.1564 33.4892 93.6299C33.4892 92.7575 33.9254 91.8852 34.5796 91.4491C35.0158 91.0129 35.67 90.7948 36.3242 90.7948C36.5423 90.7948 36.6514 90.7948 36.8694 90.7948C37.3056 90.9039 37.7418 91.122 38.1779 91.34C38.6141 91.6672 38.9412 92.1033 39.0502 92.6485C39.0502 92.9756 39.1593 93.3027 39.1593 93.6299ZM33.4892 68.8781C33.4892 67.3515 34.7977 66.043 36.3242 66.043C36.6514 66.043 37.0875 66.1521 37.4146 66.2611C38.2869 66.5882 39.0502 67.4605 39.1593 68.4419C39.1593 68.5509 39.1593 68.66 39.1593 68.8781C39.1593 68.9871 39.1593 69.2052 39.1593 69.3142C39.0502 70.0775 38.6141 70.7317 38.0689 71.1679C37.8508 71.2769 37.6327 71.3859 37.4146 71.495C37.0875 71.604 36.7604 71.7131 36.3242 71.7131C35.67 71.7131 35.0158 71.495 34.5796 71.0588C33.9254 70.6227 33.4892 69.7504 33.4892 68.8781ZM55.6241 54.4849C56.0603 54.1578 56.7145 53.8307 57.3687 53.8307C58.023 53.8307 58.6772 54.0488 59.1133 54.4849C59.6585 54.9211 60.0947 55.5753 60.2037 56.3386C60.2037 56.4476 60.2037 56.6657 60.2037 56.7748C60.2037 57.6471 59.7676 58.5194 59.1133 58.9555C58.8953 59.1736 58.6772 59.2826 58.4591 59.3917C58.132 59.5007 57.8049 59.6098 57.3687 59.6098C57.0416 59.6098 56.6055 59.5007 56.2783 59.3917C56.0603 59.2826 55.7331 59.1736 55.6241 58.9555C54.9699 58.4103 54.5337 57.6471 54.5337 56.7748C54.5337 56.6657 54.5337 56.4476 54.5337 56.3386C54.6428 55.5753 55.0789 54.9211 55.6241 54.4849ZM60.2037 81.4175C60.2037 82.2898 59.7676 83.0531 59.1133 83.4892C59.0043 83.5983 58.8953 83.7073 58.6772 83.7073C58.241 83.9254 57.8049 84.0344 57.3687 84.0344C56.9326 84.0344 56.4964 83.9254 56.0603 83.7073C55.9512 83.5983 55.7331 83.4892 55.6241 83.3802C54.9699 82.835 54.5337 82.0717 54.5337 81.1994V81.0904C54.5337 80.8723 54.5337 80.5452 54.6428 80.3271C54.7518 79.6729 55.188 79.2367 55.6241 78.8006C55.9512 78.5825 56.2783 78.3644 56.7145 78.2554C56.9326 78.1464 57.1506 78.1463 57.3687 78.1463C57.5868 78.1463 57.9139 78.1464 58.132 78.2554C58.4591 78.3644 58.8953 78.5825 59.1133 78.8006C59.5495 79.1277 59.8766 79.6729 60.0947 80.2181C60.2037 80.4362 60.2037 80.7633 60.2037 80.9814C60.2037 81.4175 60.2037 81.4175 60.2037 81.4175ZM72.307 67.3515C72.198 67.8967 72.089 68.3329 72.089 68.8781C72.089 69.4232 72.198 69.9684 72.307 70.4046L61.6212 76.6198C60.967 75.9656 60.0947 75.5294 59.1133 75.3113V62.7719C60.0947 62.4448 60.967 62.0086 61.7303 61.2453L72.307 67.3515ZM46.3558 26.462C46.3558 17.0846 54.5337 10.3242 57.3687 8.36155C60.2037 10.4333 68.3816 17.0846 68.3816 26.462C68.3816 34.3128 62.6026 39.8737 59.1133 42.5997V27.8795C59.1133 26.8981 58.3501 26.1349 57.3687 26.1349C56.3874 26.1349 55.6241 26.8981 55.6241 27.8795V42.5997C52.1349 39.8737 46.3558 34.2037 46.3558 26.462ZM53.0072 61.2453C53.7704 61.8996 54.6428 62.4448 55.6241 62.7719V75.2023C54.7518 75.4204 53.8795 75.9656 53.2253 76.5108L42.5395 70.2956C42.6485 69.7504 42.7575 69.3142 42.7575 68.769C42.7575 68.2238 42.6485 67.6786 42.5395 67.2425L53.0072 61.2453ZM42.5395 94.7202C42.6485 94.3931 42.6485 93.957 42.6485 93.6299C42.6485 92.9756 42.5395 92.3214 42.3214 91.6672L52.7891 85.67C53.5524 86.4333 54.5337 87.0875 55.6241 87.4146V99.1908C54.6428 99.5179 53.6614 100.063 53.0072 100.717L42.5395 94.7202ZM61.7303 100.717C60.967 99.9541 60.0947 99.5179 59.1133 99.1908V87.4146C60.2037 87.0875 61.1851 86.5423 61.9484 85.67L72.4161 91.6672C72.198 92.3214 72.089 92.9756 72.089 93.6299C72.089 93.957 72.089 94.3931 72.198 94.7202L61.7303 100.717ZM97.7131 63.208C95.4232 64.5165 92.8063 64.2984 90.7346 63.7532L94.2238 61.6815C95.0961 61.2453 95.3142 60.155 94.8781 59.2826C94.4419 58.4103 93.3515 58.1923 92.4792 58.6284L88.99 60.5911C89.5352 58.6284 90.6255 56.2296 92.9154 54.9211C96.2956 52.9584 100.439 54.2669 102.293 54.9211C102.184 57.1019 101.093 61.2453 97.7131 63.208Z" fill="#100E0F"/>
</svg>
