<svg width="53" height="53" viewBox="0 0 53 53" fill="none" xmlns="http://www.w3.org/2000/svg">
<path opacity="0.49" d="M52.999 26.2705C52.8774 11.8819 41.1189 0.123295 26.7303 0.000967709C11.91 -0.124238 -0.127779 11.9164 0.0010241 26.736C0.12623 41.1232 11.8862 52.8789 26.2741 52.999C41.0908 53.1228 53.1249 41.0872 52.999 26.2705V26.2705ZM29.7532 41.8558H21.3781C20.9233 39.1509 20.3894 35.5869 19.7792 31.1622C19.5705 33.1086 19.2813 35.0724 18.9121 37.0512L18.0659 41.8558H9.67137L6.40163 19.7195H13.0512C13.1016 20.2973 13.6643 24.5227 14.7372 32.397C14.8221 31.5875 15.3999 27.3607 16.4706 19.7195H22.8583L24.4205 32.397C24.668 28.6955 25.2573 24.4694 26.1892 19.7195H32.833L29.7532 41.8558ZM46.0199 30.811C45.6335 31.7645 44.9664 32.4905 44.0173 32.987C43.0704 33.4835 41.8528 33.7318 40.3691 33.7318C38.6846 33.7318 37.3598 33.4432 36.3978 32.8661C35.4378 32.2898 34.8039 31.5817 34.5017 30.7463C34.1987 29.9101 34.0469 28.4573 34.0469 26.3914V24.6738L38.2449 24.8062C38.2442 24.817 38.2442 24.8278 38.2442 24.8386L38.4511 24.2161L38.6538 23.7197C37.7687 23.6988 36.8036 23.6506 36.8036 23.6506L36.818 20.4513L38.484 20.4264C38.3406 19.7183 38.2273 19.0048 38.0685 18.2991H34.0469V16.4469C34.0469 14.3709 34.5125 12.9685 35.4429 12.2388C36.3733 11.5106 37.8534 11.1458 39.8819 11.1458C42.4191 11.1458 44.1404 11.6502 45.0449 12.6612C45.9501 13.6722 46.402 15.0747 46.402 16.8722C46.402 18.0875 46.0084 19.6936 45.6838 20.234C45.3586 20.7759 44.7887 21.2695 43.972 21.7163C44.7793 21.9941 45.3823 22.4489 45.7759 23.0785C46.1717 23.7096 46.5991 24.463 46.5991 26.7908C46.5991 28.5185 46.4063 29.8583 46.0199 30.811Z" fill="#969696"/>
<path d="M40.8887 21.4479C41.2787 21.3018 41.6111 21.0384 41.8515 20.7031C41.8522 20.7024 41.8529 20.7024 41.8529 20.7017C41.8558 20.6981 41.8579 20.6945 41.8608 20.6909C41.8623 20.6894 41.8637 20.6873 41.8651 20.6858C42.1263 20.316 42.2782 19.8612 42.2782 19.3812V14.9652C42.2782 14.3831 42.0616 13.834 41.6687 13.4189C41.2751 13.0015 40.7534 12.7727 40.1979 12.7727C39.1264 12.7727 38.2428 13.6318 38.132 14.7314C38.1313 14.7364 38.1313 14.7421 38.1305 14.7472C38.1284 14.7673 38.1269 14.7875 38.1262 14.8083C38.1219 14.8602 38.1198 14.9127 38.1198 14.9652V19.3812C38.1198 19.7928 38.2313 20.185 38.4263 20.521C38.4335 20.5333 38.4407 20.5455 38.4479 20.5577C38.7004 20.9729 39.084 21.2996 39.5452 21.4615V22.8683C39.0574 23.0403 38.658 23.3936 38.4069 23.844C38.2298 24.1592 38.1277 24.5212 38.1205 24.9018C38.1198 24.9126 38.1198 24.9234 38.1198 24.9342V29.3639C38.1198 30.5728 39.0516 31.5579 40.1979 31.5579C40.7296 31.5579 41.2154 31.3463 41.5838 30.9973C41.5881 30.9937 41.5924 30.9894 41.5967 30.9851C42.0155 30.5836 42.2782 30.005 42.2782 29.3639V24.9486C42.2782 24.3657 42.0616 23.8174 41.6687 23.4015C41.4449 23.1633 41.1693 22.982 40.8678 22.8733V21.4558C40.875 21.4529 40.8815 21.4507 40.8887 21.4479ZM39.32 14.8889C39.438 14.4867 39.7906 14.1938 40.2072 14.1938C40.4519 14.1938 40.6836 14.2975 40.8584 14.4824C41.0362 14.6702 41.134 14.9199 41.134 15.184V19.1632C41.134 19.3345 41.0909 19.5014 41.0132 19.6475C40.9772 19.7079 40.9354 19.7641 40.8887 19.8151V18.5401C40.8887 18.1903 40.603 17.9047 40.254 17.9047H40.1928C39.9093 17.9047 39.6676 18.0932 39.587 18.3515C39.587 18.353 39.5862 18.3544 39.5862 18.3551C39.5596 18.4249 39.5452 18.5005 39.5452 18.5796V19.8C39.384 19.6187 39.2898 19.3762 39.2898 19.1244V15.1401C39.2898 15.0544 39.2998 14.9717 39.3193 14.8925C39.3193 14.8911 39.32 14.8904 39.32 14.8889ZM41.134 25.1673V29.1451C41.134 29.384 41.0549 29.6035 40.9218 29.774C40.9189 29.7784 40.916 29.782 40.9117 29.7863C40.7412 29.9842 40.4958 30.1079 40.2238 30.1079C39.7078 30.1079 39.2898 29.6647 39.2898 29.1178V25.135C39.2898 25.0234 39.3085 24.914 39.3423 24.8111C39.3445 24.8047 39.3466 24.7989 39.3488 24.7932C39.3948 24.6759 39.4618 24.5679 39.5452 24.4758V25.5415C39.5452 25.8905 39.8287 26.174 40.1763 26.174H40.2367C40.4648 26.174 40.6656 26.0517 40.7764 25.8689C40.7771 25.8675 40.7786 25.8653 40.78 25.8632C40.8484 25.7617 40.8887 25.6394 40.8887 25.5084V24.4981C41.047 24.6816 41.134 24.9176 41.134 25.1673Z" fill="#969696"/>
</svg>
